<svg width="135" height="73" viewBox="0 0 135 73" fill="none" xmlns="http://www.w3.org/2000/svg">
<g id="Logo">
<path id="Vector" fill-rule="evenodd" clip-rule="evenodd" d="M3.25975 36.0099C5.05709 36.0099 6.5195 37.4712 6.5195 39.2692C6.5195 41.0721 5.05709 42.5334 3.25975 42.5334C1.45909 42.5334 0 41.0721 0 39.2692C0 37.4712 1.45909 36.0099 3.25975 36.0099ZM8.07642 47.2092C11.3627 47.2092 14.0305 49.8764 14.0305 53.1622C14.0305 56.4497 11.3627 59.1152 8.07642 59.1152C4.79014 59.1152 2.12729 56.4497 2.12729 53.1622C2.12729 49.8781 4.79014 47.2092 8.07642 47.2092ZM21.1171 58.8366C24.4034 58.8366 27.0662 61.5021 27.0662 64.7929C27.0662 68.0787 24.4034 70.7459 21.1171 70.7459C17.8308 70.7459 15.163 68.0787 15.163 64.7929C15.163 61.5021 17.8308 58.8366 21.1171 58.8366ZM39.6725 64.209C42.0982 64.209 44.0663 66.1779 44.0663 68.6045C44.0663 71.0312 42.0982 73 39.6725 73C37.2467 73 35.2786 71.0312 35.2786 68.6045C35.2786 66.1795 37.2467 64.209 39.6725 64.209ZM57.112 51.4621C60.3982 51.4621 63.0661 54.1309 63.0661 57.4184C63.0661 60.7059 60.3999 63.3714 57.112 63.3714C53.829 63.3714 51.1628 60.7059 51.1628 57.4184C51.1628 54.1309 53.829 51.4621 57.112 51.4621ZM49.1665 2.19111C51.9919 2.19111 54.2767 4.47843 54.2767 7.30149C54.2767 10.1229 51.9919 12.4119 49.1665 12.4119C46.3495 12.4119 44.0613 10.1246 44.0613 7.30149C44.0613 4.47843 46.3511 2.19111 49.1665 2.19111ZM30.0457 0C32.3123 0 34.1544 1.84113 34.1544 4.1102C34.1544 6.38093 32.314 8.22372 30.0457 8.22372C27.7792 8.22372 25.9371 6.37927 25.9371 4.1102C25.9371 1.84113 27.7775 0 30.0457 0ZM13.3225 9.07296C15.1232 9.07296 16.5823 10.5343 16.5823 12.3323C16.5823 14.1352 15.1232 15.5965 13.3225 15.5965C11.5202 15.5965 10.0628 14.1352 10.0628 12.3323C10.0628 10.5343 11.5202 9.07296 13.3225 9.07296ZM61.927 13.5182C65.3807 13.5182 68.1845 16.3214 68.1845 19.7781C68.1845 23.2347 65.3807 26.0396 61.927 26.0396C58.4682 26.0396 55.6661 23.2347 55.6661 19.7781C55.6661 16.3214 58.4682 13.5182 61.927 13.5182ZM4.10868 23.6759C5.51969 23.6759 6.66209 24.8188 6.66209 26.227C6.66209 27.6352 5.51969 28.7764 4.10868 28.7764C2.70264 28.7764 1.56024 27.6352 1.56024 26.227C1.56024 24.8188 2.70264 23.6759 4.10868 23.6759Z" fill="#1BBF00"/>
<path id="Vector_2" d="M124.376 37.3051C124.153 36.5404 123.705 35.9184 123.037 35.4374C122.369 34.958 121.591 34.7192 120.707 34.7192C119.749 34.7192 118.906 34.9895 118.185 35.527C117.733 35.862 117.311 36.4575 116.925 37.3051H124.376ZM127.835 40.017H116.771C116.933 40.9906 117.365 41.7669 118.058 42.3425C118.747 42.918 119.631 43.2083 120.707 43.2083C121.994 43.2083 123.101 42.7555 124.025 41.8565L126.93 43.2216C126.205 44.245 125.34 45.0046 124.328 45.4989C123.319 45.9915 122.123 46.2354 120.734 46.2354C118.58 46.2354 116.827 45.557 115.479 44.2002C114.121 42.8401 113.445 41.1383 113.445 39.0948C113.445 36.9999 114.121 35.2649 115.471 33.8799C116.824 32.4982 118.512 31.8049 120.546 31.8049C122.703 31.8049 124.461 32.4966 125.819 33.8799C127.169 35.2649 127.848 37.0911 127.848 39.3618L127.835 40.017ZM106.761 27.1025H110.193V32.1549H112.233V35.1222H110.193V45.8804H106.761V35.1222H104.995V32.1549H106.761V27.1025ZM95.8163 34.9829C94.7485 34.9829 93.8615 35.3561 93.1584 36.1108C92.4505 36.8655 92.099 37.8292 92.099 39.0035C92.099 40.1945 92.4554 41.1665 93.175 41.9328C93.8913 42.7007 94.7784 43.0822 95.8296 43.0822C96.9156 43.0822 97.811 42.7041 98.5273 41.951C99.2435 41.2013 99.6 40.2144 99.6 38.9936C99.6 37.8027 99.2435 36.8307 98.5273 36.0975C97.811 35.3528 96.9106 34.9829 95.8163 34.9829ZM99.4375 32.1549H102.87V45.8804H99.4375V44.4291C98.766 45.071 98.0879 45.5271 97.4114 45.8141C96.7349 46.0911 96.0004 46.2337 95.2095 46.2337C93.4337 46.2337 91.905 45.5437 90.6083 44.172C89.3117 42.7986 88.6668 41.0885 88.6668 39.0434C88.6668 36.9269 89.2902 35.1902 90.5437 33.8351C91.7955 32.4833 93.3209 31.8049 95.1083 31.8049C95.934 31.8049 96.7034 31.9608 97.4329 32.271C98.1542 32.5828 98.8207 33.0506 99.4359 33.6742V32.1549H99.4375ZM73.3645 32.1549H76.8663L80.3367 40.2542L83.7854 32.1549H87.2823L81.4376 45.8804H79.2092L73.3645 32.1549ZM64.8006 35.0459C63.7278 35.0459 62.8358 35.4191 62.1295 36.1622C61.4182 36.9086 61.0667 37.8591 61.0667 39.0185C61.0667 40.2144 61.4132 41.1797 62.1212 41.9195C62.8242 42.6609 63.708 43.0325 64.784 43.0325C65.8601 43.0325 66.7571 42.6593 67.4734 41.9062C68.1847 41.1565 68.5462 40.1961 68.5462 39.0185C68.5462 37.8425 68.1947 36.8871 67.4916 36.1506C66.787 35.4142 65.89 35.0459 64.8006 35.0459ZM64.7442 31.8032C66.0408 31.8032 67.2612 32.1283 68.4003 32.7736C69.5377 33.4171 70.4264 34.3012 71.0664 35.4092C71.7081 36.5188 72.0248 37.7164 72.0248 39.0019C72.0248 40.3006 71.6998 41.5115 71.0631 42.6377C70.4165 43.7656 69.5427 44.6447 68.4318 45.2816C67.3209 45.9136 66.0989 46.2337 64.7625 46.2337C62.7944 46.2337 61.1164 45.5321 59.722 44.1322C58.3342 42.7339 57.6345 41.0304 57.6345 39.0317C57.6345 36.8871 58.4254 35.1007 59.9939 33.6709C61.3734 32.4286 62.9552 31.8032 64.7442 31.8032ZM42.8048 32.1549H46.232V33.5598C47.0179 32.898 47.7209 32.4435 48.3626 32.1897C48.991 31.9309 49.641 31.8032 50.3042 31.8032C51.6704 31.8032 52.8211 32.2809 53.7745 33.2297C54.5737 34.0358 54.97 35.2301 54.97 36.8141V45.8804H51.566V39.8677C51.566 38.2256 51.4963 37.1359 51.3454 36.5968C51.2012 36.0611 50.9409 35.6514 50.5761 35.3677C50.2113 35.0857 49.7636 34.9464 49.2231 34.9464C48.5201 34.9464 47.9265 35.177 47.4258 35.648C46.925 36.1108 46.5735 36.7577 46.3845 37.5821C46.2834 38.0133 46.2303 38.9405 46.2303 40.3703V45.8804H42.8031V32.1549H42.8048ZM27.3035 32.1549H30.7357V33.5598C31.5183 32.898 32.2247 32.4435 32.863 32.1897C33.4964 31.9309 34.1464 31.8032 34.8096 31.8032C36.1725 31.8032 37.3265 32.2809 38.2766 33.2297C39.0758 34.0358 39.4721 35.2301 39.4721 36.8141V45.8804H36.0714V39.8677C36.0714 38.2256 35.9968 37.1359 35.8475 36.5968C35.7033 36.0611 35.4479 35.6514 35.0782 35.3677C34.7134 35.0857 34.2657 34.9464 33.7285 34.9464C33.0255 34.9464 32.4286 35.177 31.9262 35.648C31.4305 36.1108 31.0789 36.7577 30.885 37.5821C30.7888 38.0133 30.7357 38.9405 30.7357 40.3703V45.8804H27.3035V32.1549ZM20.207 27.3248H23.7089V45.8804H20.207V27.3248Z" fill="#FEFEFE"/>
<g id="Your solution">
<path d="M75.9646 52.0674C76.0376 51.9762 76.1258 51.9305 76.2291 51.9305C76.3143 51.9305 76.3903 51.964 76.4572 52.0309C76.5241 52.0978 76.5575 52.18 76.5575 52.2773C76.5575 52.3685 76.5302 52.4446 76.4754 52.5054L74.2589 55.3068V58.0625C74.2589 58.1842 74.2224 58.2785 74.1494 58.3454C74.0825 58.4123 73.9943 58.4458 73.8849 58.4458C73.7754 58.4458 73.6842 58.4123 73.6112 58.3454C73.5443 58.2785 73.5109 58.1842 73.5109 58.0625V55.2977L71.2943 52.5054C71.2335 52.4385 71.2031 52.3625 71.2031 52.2773C71.2031 52.18 71.2366 52.0978 71.3035 52.0309C71.3764 51.964 71.4585 51.9305 71.5497 51.9305C71.6531 51.9305 71.7413 51.9762 71.8143 52.0674L73.894 54.7228L75.9646 52.0674Z" fill="#1BBF00"/>
<path d="M78.4586 58.464C78.039 58.464 77.6681 58.3698 77.3458 58.1812C77.0295 57.9926 76.7833 57.7249 76.6069 57.3782C76.4366 57.0253 76.3515 56.6178 76.3515 56.1554C76.3515 55.6931 76.4366 55.2885 76.6069 54.9418C76.7833 54.589 77.0295 54.3183 77.3458 54.1297C77.6681 53.9411 78.039 53.8468 78.4586 53.8468C78.8782 53.8468 79.2491 53.9411 79.5714 54.1297C79.8937 54.3183 80.14 54.589 80.3103 54.9418C80.4866 55.2885 80.5748 55.6931 80.5748 56.1554C80.5748 56.6178 80.4866 57.0253 80.3103 57.3782C80.14 57.7249 79.8937 57.9926 79.5714 58.1812C79.2491 58.3698 78.8782 58.464 78.4586 58.464ZM78.4586 57.8527C78.8964 57.8527 79.2309 57.7097 79.462 57.4238C79.6991 57.1318 79.8177 56.709 79.8177 56.1554C79.8177 55.614 79.6991 55.1973 79.462 54.9053C79.2248 54.6072 78.8903 54.4582 78.4586 54.4582C78.0268 54.4582 77.6924 54.6072 77.4552 54.9053C77.2181 55.1973 77.0995 55.614 77.0995 56.1554C77.0995 56.7029 77.215 57.1227 77.4461 57.4147C77.6833 57.7067 78.0208 57.8527 78.4586 57.8527Z" fill="#1BBF00"/>
<path d="M85.0507 53.865C85.1662 53.865 85.2544 53.8985 85.3152 53.9654C85.3821 54.0323 85.4155 54.1205 85.4155 54.23V58.0899C85.4155 58.1933 85.3821 58.2785 85.3152 58.3454C85.2544 58.4123 85.1662 58.4458 85.0507 58.4458C84.9412 58.4458 84.853 58.4154 84.7861 58.3545C84.7253 58.2876 84.6949 58.2025 84.6949 58.099V57.6428C84.5551 57.9105 84.3574 58.1143 84.102 58.2542C83.8527 58.3941 83.5699 58.464 83.2537 58.464C82.7247 58.464 82.3263 58.318 82.0588 58.026C81.7912 57.728 81.6574 57.29 81.6574 56.712V54.23C81.6574 54.1205 81.6909 54.0323 81.7578 53.9654C81.8247 53.8985 81.9159 53.865 82.0314 53.865C82.147 53.865 82.2351 53.8985 82.2959 53.9654C82.3628 54.0323 82.3963 54.1205 82.3963 54.23V56.6938C82.3963 57.0892 82.4753 57.3812 82.6334 57.5698C82.7916 57.7523 83.0409 57.8435 83.3814 57.8435C83.7706 57.8435 84.0838 57.7188 84.3209 57.4694C84.5581 57.2139 84.6767 56.8793 84.6767 56.4657V54.23C84.6767 54.1205 84.7101 54.0323 84.777 53.9654C84.8439 53.8985 84.9351 53.865 85.0507 53.865Z" fill="#1BBF00"/>
<path d="M88.9871 53.865C89.2425 53.8468 89.3702 53.9502 89.3702 54.1753C89.3702 54.2726 89.3428 54.3517 89.2881 54.4125C89.2334 54.4673 89.1391 54.5008 89.0053 54.5129L88.7317 54.5403C88.3242 54.5768 88.0202 54.7228 87.8195 54.9783C87.6249 55.2277 87.5276 55.5228 87.5276 55.8634V58.0808C87.5276 58.2025 87.4942 58.2937 87.4273 58.3545C87.3604 58.4154 87.2722 58.4458 87.1628 58.4458C87.0533 58.4458 86.9621 58.4154 86.8891 58.3545C86.8222 58.2876 86.7888 58.1964 86.7888 58.0808V54.23C86.7888 54.1145 86.8253 54.0263 86.8982 53.9654C86.9712 53.8985 87.0594 53.865 87.1628 53.865C87.2601 53.865 87.3421 53.8985 87.409 53.9654C87.4759 54.0263 87.5094 54.1114 87.5094 54.2209V54.7319C87.6371 54.4643 87.8165 54.2605 88.0476 54.1205C88.2847 53.9806 88.5553 53.8985 88.8594 53.8742L88.9871 53.865Z" fill="#1BBF00"/>
<path d="M94.518 58.4732C94.0619 58.4732 93.6241 58.4063 93.2045 58.2724C92.791 58.1325 92.4595 57.947 92.2102 57.7158C92.119 57.6306 92.0734 57.5242 92.0734 57.3964C92.0734 57.3113 92.0977 57.2383 92.1464 57.1774C92.195 57.1105 92.2528 57.077 92.3197 57.077C92.3987 57.077 92.4839 57.1105 92.5751 57.1774C93.1406 57.6154 93.7852 57.8344 94.5089 57.8344C95.0318 57.8344 95.4332 57.734 95.7129 57.5333C95.9927 57.3325 96.1325 57.0466 96.1325 56.6755C96.1325 56.4626 96.0656 56.2923 95.9318 56.1645C95.7981 56.0307 95.6217 55.9243 95.4028 55.8452C95.1839 55.7661 94.8889 55.684 94.518 55.5988C94.0193 55.4832 93.6089 55.3615 93.2866 55.2338C92.9704 55.106 92.7119 54.9235 92.5112 54.6863C92.3166 54.449 92.2193 54.1388 92.2193 53.7555C92.2193 53.3905 92.3166 53.0681 92.5112 52.7883C92.7119 52.5024 92.9886 52.2834 93.3413 52.1313C93.7001 51.9731 94.1075 51.894 94.5636 51.894C94.9893 51.894 95.3845 51.961 95.7494 52.0948C96.1204 52.2225 96.4305 52.4081 96.6798 52.6514C96.7771 52.7488 96.8258 52.8552 96.8258 52.9708C96.8258 53.056 96.8014 53.132 96.7528 53.1989C96.7041 53.2598 96.6464 53.2902 96.5795 53.2902C96.5126 53.2902 96.4244 53.2567 96.315 53.1898C96.017 52.9465 95.7403 52.7761 95.4849 52.6788C95.2295 52.5815 94.9224 52.5328 94.5636 52.5328C94.0589 52.5328 93.6666 52.6393 93.3869 52.8522C93.1072 53.059 92.9673 53.351 92.9673 53.7282C92.9673 54.0506 93.0889 54.2939 93.3322 54.4582C93.5815 54.6163 93.9616 54.7563 94.4724 54.8779C95.0258 55.0118 95.4606 55.1365 95.7768 55.252C96.093 55.3615 96.3545 55.5288 96.5612 55.7539C96.7741 55.979 96.8805 56.2801 96.8805 56.6573C96.8805 57.0162 96.7802 57.3325 96.5795 57.6063C96.3849 57.88 96.1082 58.093 95.7494 58.245C95.3906 58.3971 94.9802 58.4732 94.518 58.4732Z" fill="#1BBF00"/>
<path d="M99.8285 58.464C99.4089 58.464 99.0379 58.3698 98.7156 58.1812C98.3994 57.9926 98.1531 57.7249 97.9768 57.3782C97.8065 57.0253 97.7214 56.6178 97.7214 56.1554C97.7214 55.6931 97.8065 55.2885 97.9768 54.9418C98.1531 54.589 98.3994 54.3183 98.7156 54.1297C99.0379 53.9411 99.4089 53.8468 99.8285 53.8468C100.248 53.8468 100.619 53.9411 100.941 54.1297C101.264 54.3183 101.51 54.589 101.68 54.9418C101.857 55.2885 101.945 55.6931 101.945 56.1554C101.945 56.6178 101.857 57.0253 101.68 57.3782C101.51 57.7249 101.264 57.9926 100.941 58.1812C100.619 58.3698 100.248 58.464 99.8285 58.464ZM99.8285 57.8527C100.266 57.8527 100.601 57.7097 100.832 57.4238C101.069 57.1318 101.188 56.709 101.188 56.1554C101.188 55.614 101.069 55.1973 100.832 54.9053C100.595 54.6072 100.26 54.4582 99.8285 54.4582C99.3967 54.4582 99.0623 54.6072 98.8251 54.9053C98.5879 55.1973 98.4694 55.614 98.4694 56.1554C98.4694 56.7029 98.5849 57.1227 98.816 57.4147C99.0531 57.7067 99.3906 57.8527 99.8285 57.8527Z" fill="#1BBF00"/>
<path d="M103.42 58.4458C103.31 58.4458 103.219 58.4154 103.146 58.3545C103.079 58.2876 103.046 58.1964 103.046 58.0808V52.2864C103.046 52.1708 103.079 52.0826 103.146 52.0218C103.219 51.9549 103.31 51.9214 103.42 51.9214C103.523 51.9214 103.608 51.9549 103.675 52.0218C103.748 52.0826 103.784 52.1708 103.784 52.2864V58.0808C103.784 58.1964 103.748 58.2876 103.675 58.3545C103.608 58.4154 103.523 58.4458 103.42 58.4458Z" fill="#1BBF00"/>
<path d="M108.541 53.865C108.656 53.865 108.744 53.8985 108.805 53.9654C108.872 54.0323 108.905 54.1205 108.905 54.23V58.0899C108.905 58.1933 108.872 58.2785 108.805 58.3454C108.744 58.4123 108.656 58.4458 108.541 58.4458C108.431 58.4458 108.343 58.4154 108.276 58.3545C108.215 58.2876 108.185 58.2025 108.185 58.099V57.6428C108.045 57.9105 107.847 58.1143 107.592 58.2542C107.343 58.3941 107.06 58.464 106.744 58.464C106.215 58.464 105.816 58.318 105.549 58.026C105.281 57.728 105.147 57.29 105.147 56.712V54.23C105.147 54.1205 105.181 54.0323 105.248 53.9654C105.315 53.8985 105.406 53.865 105.521 53.865C105.637 53.865 105.725 53.8985 105.786 53.9654C105.853 54.0323 105.886 54.1205 105.886 54.23V56.6938C105.886 57.0892 105.965 57.3812 106.123 57.5698C106.282 57.7523 106.531 57.8435 106.871 57.8435C107.261 57.8435 107.574 57.7188 107.811 57.4694C108.048 57.2139 108.167 56.8793 108.167 56.4657V54.23C108.167 54.1205 108.2 54.0323 108.267 53.9654C108.334 53.8985 108.425 53.865 108.541 53.865Z" fill="#1BBF00"/>
<path d="M112.331 57.8618C112.544 57.88 112.65 57.9774 112.65 58.1538C112.65 58.2572 112.611 58.3363 112.532 58.391C112.459 58.4397 112.346 58.458 112.194 58.4458L111.948 58.4275C111.461 58.391 111.103 58.245 110.872 57.9895C110.641 57.734 110.525 57.3478 110.525 56.8307V54.5403H109.914C109.81 54.5403 109.728 54.516 109.668 54.4673C109.613 54.4125 109.585 54.3426 109.585 54.2574C109.585 54.1662 109.613 54.0932 109.668 54.0384C109.728 53.9837 109.81 53.9563 109.914 53.9563H110.525V52.9252C110.525 52.8096 110.558 52.7214 110.625 52.6605C110.692 52.5936 110.783 52.5602 110.899 52.5602C111.008 52.5602 111.097 52.5936 111.164 52.6605C111.23 52.7214 111.264 52.8096 111.264 52.9252V53.9563H112.276C112.374 53.9563 112.45 53.9837 112.504 54.0384C112.565 54.0932 112.596 54.1662 112.596 54.2574C112.596 54.3426 112.565 54.4125 112.504 54.4673C112.45 54.516 112.374 54.5403 112.276 54.5403H111.264V56.8672C111.264 57.2018 111.331 57.4451 111.465 57.5972C111.604 57.7432 111.811 57.8253 112.085 57.8435L112.331 57.8618Z" fill="#1BBF00"/>
<path d="M113.753 58.4458C113.643 58.4458 113.552 58.4154 113.479 58.3545C113.412 58.2876 113.379 58.1964 113.379 58.0808V54.23C113.379 54.1145 113.412 54.0263 113.479 53.9654C113.552 53.8985 113.643 53.865 113.753 53.865C113.862 53.865 113.95 53.8985 114.017 53.9654C114.084 54.0263 114.118 54.1145 114.118 54.23V58.0808C114.118 58.2025 114.084 58.2937 114.017 58.3545C113.95 58.4154 113.862 58.4458 113.753 58.4458ZM113.753 52.9069C113.607 52.9069 113.488 52.8643 113.397 52.7792C113.306 52.694 113.26 52.5815 113.26 52.4415C113.26 52.3077 113.306 52.1982 113.397 52.113C113.488 52.0279 113.607 51.9853 113.753 51.9853C113.899 51.9853 114.017 52.0279 114.108 52.113C114.2 52.1982 114.245 52.3077 114.245 52.4415C114.245 52.5815 114.2 52.694 114.108 52.7792C114.017 52.8643 113.899 52.9069 113.753 52.9069Z" fill="#1BBF00"/>
<path d="M117.341 58.464C116.922 58.464 116.551 58.3698 116.228 58.1812C115.912 57.9926 115.666 57.7249 115.49 57.3782C115.319 57.0253 115.234 56.6178 115.234 56.1554C115.234 55.6931 115.319 55.2885 115.49 54.9418C115.666 54.589 115.912 54.3183 116.228 54.1297C116.551 53.9411 116.922 53.8468 117.341 53.8468C117.761 53.8468 118.132 53.9411 118.454 54.1297C118.776 54.3183 119.023 54.589 119.193 54.9418C119.369 55.2885 119.458 55.6931 119.458 56.1554C119.458 56.6178 119.369 57.0253 119.193 57.3782C119.023 57.7249 118.776 57.9926 118.454 58.1812C118.132 58.3698 117.761 58.464 117.341 58.464ZM117.341 57.8527C117.779 57.8527 118.114 57.7097 118.345 57.4238C118.582 57.1318 118.7 56.709 118.7 56.1554C118.7 55.614 118.582 55.1973 118.345 54.9053C118.107 54.6072 117.773 54.4582 117.341 54.4582C116.91 54.4582 116.575 54.6072 116.338 54.9053C116.101 55.1973 115.982 55.614 115.982 56.1554C115.982 56.7029 116.098 57.1227 116.329 57.4147C116.566 57.7067 116.903 57.8527 117.341 57.8527Z" fill="#1BBF00"/>
<path d="M122.793 53.8468C123.857 53.8468 124.389 54.4338 124.389 55.6079V58.0808C124.389 58.1964 124.356 58.2876 124.289 58.3545C124.228 58.4154 124.14 58.4458 124.025 58.4458C123.909 58.4458 123.818 58.4154 123.751 58.3545C123.684 58.2876 123.651 58.1964 123.651 58.0808V55.6535C123.651 55.2399 123.569 54.9388 123.404 54.7502C123.246 54.5616 122.991 54.4673 122.638 54.4673C122.231 54.4673 121.905 54.592 121.662 54.8414C121.419 55.0908 121.297 55.4285 121.297 55.8543V58.0808C121.297 58.1964 121.264 58.2876 121.197 58.3545C121.136 58.4154 121.048 58.4458 120.932 58.4458C120.817 58.4458 120.726 58.4154 120.659 58.3545C120.592 58.2876 120.558 58.1964 120.558 58.0808V54.23C120.558 54.1205 120.592 54.0323 120.659 53.9654C120.726 53.8985 120.817 53.865 120.932 53.865C121.042 53.865 121.127 53.8985 121.188 53.9654C121.255 54.0323 121.288 54.1175 121.288 54.2209V54.6863C121.434 54.4125 121.638 54.2057 121.899 54.0658C122.161 53.9198 122.459 53.8468 122.793 53.8468Z" fill="#1BBF00"/>
</g>
</g>
</svg>
